<svg width="3544" height="1001" viewBox="0 0 3544 1001" fill="none" xmlns="http://www.w3.org/2000/svg">
<path d="M993.101 117.734H1492.51V248.858H1138.9V398.918H1414.88V530.042H1138.9V796.552H993.101V117.734Z" fill="white"/>
<path d="M1676.46 321.284V796.552H1545.34V321.284H1676.46ZM1665.1 132.882C1678.99 146.136 1685.93 163.809 1685.93 185.9C1685.93 207.675 1678.99 225.19 1665.1 238.444C1651.22 251.699 1632.28 258.326 1608.3 258.326C1586.21 258.326 1568.53 251.699 1555.28 238.444C1542.34 225.19 1535.87 207.675 1535.87 185.9C1535.87 163.809 1542.5 146.136 1555.75 132.882C1569.01 119.627 1586.52 113 1608.3 113C1632.28 113 1651.22 119.627 1665.1 132.882Z" fill="white"/>
<path d="M1943.26 646.492L1841.48 796.552H1700.89L1860.89 554.184L1710.36 321.284H1856.16L1943.26 461.876L2030.36 321.284H2176.16L2025.62 554.184L2185.62 796.552H2045.03L1943.26 646.492Z" fill="white"/>
<path d="M2476.09 806.019C2448.95 806.019 2423.54 800.496 2399.87 789.451C2376.52 778.09 2359.95 766.887 2350.17 755.841L2335.49 738.327V1000.1H2204.84V321.284H2335.49V379.509C2336.76 377.616 2338.65 375.249 2341.17 372.409C2344.01 369.569 2349.69 364.361 2358.22 356.787C2367.05 348.898 2376.52 341.955 2386.62 335.959C2396.72 329.647 2409.81 324.125 2425.91 319.391C2442 314.342 2458.73 311.817 2476.09 311.817C2537.62 311.817 2590.96 335.801 2636.09 383.77C2681.53 431.423 2704.25 489.805 2704.25 558.918C2704.25 628.031 2681.53 686.571 2636.09 734.54C2590.96 782.193 2537.62 806.019 2476.09 806.019ZM2534.31 465.19C2511.9 440.575 2484.45 428.267 2451.94 428.267C2419.75 428.267 2392.3 440.575 2369.58 465.19C2346.85 489.49 2335.49 520.733 2335.49 558.918C2335.49 597.104 2346.85 628.504 2369.58 653.119C2392.3 677.735 2419.75 690.043 2451.94 690.043C2484.45 690.043 2511.9 677.735 2534.31 653.119C2557.03 628.504 2568.39 597.104 2568.39 558.918C2568.39 520.733 2557.03 489.49 2534.31 465.19Z" fill="white"/>
<path d="M3203.47 602.468H2859.33C2864.38 628.346 2878.11 650.279 2900.51 668.267C2922.92 685.94 2951.16 694.776 2985.25 694.776C3009.86 694.776 3032.58 690.043 3053.41 680.575C3074.56 670.792 3089.39 661.009 3097.91 651.226L3111.64 636.551L3179.33 723.652L3170.81 732.173C3166.71 736.275 3158.19 743.06 3145.25 752.528C3132.31 761.995 3118.58 770.516 3104.06 778.09C3089.55 785.349 3070.61 791.818 3047.26 797.498C3024.22 803.179 3000.39 806.019 2975.78 806.019C2906.04 806.019 2846.55 781.877 2797.32 733.593C2748.09 684.993 2723.47 626.768 2723.47 558.918C2723.47 491.068 2747.77 433.001 2796.37 384.717C2844.97 336.117 2903.2 311.817 2971.05 311.817C3038.9 311.817 3095.39 334.539 3140.51 379.983C3185.64 425.111 3208.21 481.6 3208.21 549.451L3203.47 602.468ZM3041.1 448.149C3022.17 431.738 2998.82 423.533 2971.05 423.533C2943.27 423.533 2919.61 431.581 2900.04 447.675C2880.79 463.77 2867.22 484.756 2859.33 510.634H3077.55C3072.51 485.387 3060.35 464.559 3041.1 448.149Z" fill="white"/>
<path d="M3543.16 316.551V447.675C3533.38 444.519 3518.86 442.784 3499.61 442.468C3465.22 442.468 3437.92 453.356 3417.72 475.131C3397.84 496.906 3387.9 528.149 3387.9 568.859V796.552H3257.25V321.284H3387.9V379.509C3391.69 375.091 3397.05 369.411 3403.99 362.468C3410.94 355.21 3426.08 345.742 3449.44 334.066C3473.11 322.389 3497.88 316.551 3523.76 316.551H3543.16Z" fill="white"/>
<path d="M660 0H237.41C219.49 0 202.033 1.99044 185.248 5.76283C79.2229 29.5918 0 124.521 0 238H422.59C440.51 238 457.967 236.01 474.752 232.237C580.777 208.408 660 113.479 660 0Z" fill="#F58599"/>
<path d="M0.000139071 1000L8.03648e-05 237.53C7.78714e-05 219.6 1.99052 202.135 5.7629 185.341C29.5918 79.2628 124.521 -1.73173e-05 238 -3.30989e-05L238 762.47C238 780.4 236.01 797.865 232.237 814.659C208.408 920.737 113.479 1000 0.000139071 1000Z" fill="#EB5555"/>
<path d="M503 372H237.264C219.355 372 201.909 373.999 185.134 377.787C79.1742 401.716 0 497.044 0 611H265.736C283.645 611 301.091 609.001 317.866 605.213C423.826 581.284 503 485.956 503 372Z" fill="#9871E3"/>
<path fill-rule="evenodd" clip-rule="evenodd" d="M238 373.257V0C124.521 1.57646e-05 29.5919 79.3341 5.7629 185.508C1.99052 202.317 7.79319e-05 219.798 8.04303e-05 237.743L0.000109228 610.77C0.107568 497.515 79.4917 402.801 185.708 379.013C202.535 375.245 220.035 373.257 238 373.257Z" fill="#FFBA4A"/>
<path d="M5.76282 185.708C1.99044 202.535 -2.4984e-06 220.035 0 238H238L238 0C220.269 0 202.991 1.93897 186.366 5.61642C186.147 5.66492 185.927 5.71375 185.708 5.76286C96.2464 25.8194 25.8194 96.2464 5.76282 185.708Z" fill="#F5664A"/>
<path d="M5.76282 558.489C1.99044 575.386 -2.4984e-06 592.96 0 611H238L238 372C220.269 372 202.991 373.947 186.366 377.64C186.147 377.689 185.927 377.738 185.708 377.787C96.2464 397.928 25.8194 468.651 5.76282 558.489Z" fill="#993280"/>
</svg>
